<svg width="25" height="26" viewBox="0 0 25 26" fill="none" xmlns="http://www.w3.org/2000/svg">
<path d="M20.4999 6.90958C20.8077 7.18283 20.9874 7.55968 20.9994 7.95728C21.0113 8.35487 20.8547 8.74066 20.5638 9.02982L11.5112 18.0309C11.3644 18.1765 11.1881 18.293 10.9926 18.3736C10.7972 18.4541 10.5865 18.4971 10.373 18.4999C10.1595 18.5027 9.94766 18.4652 9.74985 18.3898C9.55205 18.3144 9.37235 18.2026 9.22136 18.0609L4.42876 13.5603C4.14657 13.276 3.99295 12.8998 4.00025 12.5112C4.00755 12.1225 4.17521 11.7517 4.46791 11.4769C4.7606 11.202 5.15548 11.0446 5.56935 11.0377C5.98322 11.0308 6.38377 11.1751 6.68661 11.4401L10.3183 14.8485L18.2421 6.96958C18.5331 6.68054 18.9344 6.51185 19.3578 6.5006C19.7812 6.48935 20.192 6.63646 20.4999 6.90958Z" fill="#185CFF"/>
</svg>
